<mxfile host="app.diagrams.net" modified="2022-03-23T09:25:45.741Z" agent="5.0 (Macintosh; Intel Mac OS X 10_15_7) AppleWebKit/537.36 (KHTML, like Gecko) Chrome/99.0.4844.74 Safari/537.36" etag="Y7gMlnaGoBDgPw_GpvcE" version="17.1.3" type="github">
  <diagram id="IxEaBiBY9RQ0BZ5e8lzB" name="Page-1">
    <mxGraphModel dx="2034" dy="684" grid="0" gridSize="10" guides="1" tooltips="1" connect="1" arrows="1" fold="1" page="0" pageScale="1" pageWidth="827" pageHeight="1169" math="0" shadow="0">
      <root>
        <mxCell id="0" />
        <mxCell id="1" parent="0" />
        <mxCell id="cor3wmo5FigD4dXmAoRj-24" value="集中式索引" style="text;html=1;strokeColor=none;fillColor=none;align=center;verticalAlign=middle;whiteSpace=wrap;rounded=0;shadow=0;glass=0;dashed=1;sketch=0;fontSize=20;" parent="1" vertex="1">
          <mxGeometry x="-248" y="104" width="205" height="30" as="geometry" />
        </mxCell>
        <mxCell id="QXWCF3GEC1Rd_kHdMB5l-18" value="分级索引" style="text;html=1;strokeColor=none;fillColor=none;align=center;verticalAlign=middle;whiteSpace=wrap;rounded=0;shadow=0;glass=0;dashed=1;sketch=0;fontSize=20;" vertex="1" parent="1">
          <mxGeometry x="-229" y="635" width="205" height="30" as="geometry" />
        </mxCell>
        <mxCell id="QXWCF3GEC1Rd_kHdMB5l-98" value="" style="group" vertex="1" connectable="0" parent="1">
          <mxGeometry x="-331" y="219" width="364" height="320" as="geometry" />
        </mxCell>
        <mxCell id="QXWCF3GEC1Rd_kHdMB5l-47" style="edgeStyle=orthogonalEdgeStyle;rounded=0;orthogonalLoop=1;jettySize=auto;html=1;endArrow=classic;endFill=1;" edge="1" parent="QXWCF3GEC1Rd_kHdMB5l-98" source="cor3wmo5FigD4dXmAoRj-1">
          <mxGeometry relative="1" as="geometry">
            <mxPoint x="180.61068702290078" y="106.10526315789474" as="targetPoint" />
          </mxGeometry>
        </mxCell>
        <mxCell id="QXWCF3GEC1Rd_kHdMB5l-48" value="查询" style="edgeLabel;html=1;align=center;verticalAlign=middle;resizable=0;points=[];" vertex="1" connectable="0" parent="QXWCF3GEC1Rd_kHdMB5l-47">
          <mxGeometry x="-0.2872" y="1" relative="1" as="geometry">
            <mxPoint x="14" y="6" as="offset" />
          </mxGeometry>
        </mxCell>
        <mxCell id="cor3wmo5FigD4dXmAoRj-1" value="" style="shape=umlActor;verticalLabelPosition=bottom;verticalAlign=top;html=1;outlineConnect=0;fillColor=#d0cee2;strokeColor=#56517e;fontSize=13;" parent="QXWCF3GEC1Rd_kHdMB5l-98" vertex="1">
          <mxGeometry x="170.1908396946565" width="20.83969465648855" height="50.526315789473685" as="geometry" />
        </mxCell>
        <mxCell id="QXWCF3GEC1Rd_kHdMB5l-7" style="edgeStyle=orthogonalEdgeStyle;rounded=0;orthogonalLoop=1;jettySize=auto;html=1;endArrow=classic;endFill=1;" edge="1" parent="QXWCF3GEC1Rd_kHdMB5l-98" source="cor3wmo5FigD4dXmAoRj-25">
          <mxGeometry relative="1" as="geometry">
            <mxPoint x="152.82442748091603" y="159.15789473684208" as="targetPoint" />
            <Array as="points">
              <mxPoint x="57" y="215" />
              <mxPoint x="153" y="215" />
            </Array>
          </mxGeometry>
        </mxCell>
        <mxCell id="QXWCF3GEC1Rd_kHdMB5l-8" value="推送索引" style="edgeLabel;html=1;align=center;verticalAlign=middle;resizable=0;points=[];" vertex="1" connectable="0" parent="QXWCF3GEC1Rd_kHdMB5l-7">
          <mxGeometry x="-0.1289" y="-1" relative="1" as="geometry">
            <mxPoint x="20" y="-11" as="offset" />
          </mxGeometry>
        </mxCell>
        <mxCell id="cor3wmo5FigD4dXmAoRj-25" value="pms应用" style="rounded=1;whiteSpace=wrap;html=1;shadow=0;glass=0;sketch=0;fontSize=13;fillColor=#FFE6CC;strokeColor=#36393d;" parent="QXWCF3GEC1Rd_kHdMB5l-98" vertex="1">
          <mxGeometry y="269.4736842105263" width="102.80916030534351" height="50.526315789473685" as="geometry" />
        </mxCell>
        <mxCell id="cor3wmo5FigD4dXmAoRj-27" value="pms应用" style="rounded=1;whiteSpace=wrap;html=1;shadow=0;glass=0;sketch=0;fontSize=13;fillColor=#FFE6CC;strokeColor=#36393d;" parent="QXWCF3GEC1Rd_kHdMB5l-98" vertex="1">
          <mxGeometry x="261.1908396946565" y="269.4736842105263" width="102.80916030534351" height="50.526315789473685" as="geometry" />
        </mxCell>
        <mxCell id="QXWCF3GEC1Rd_kHdMB5l-3" style="edgeStyle=orthogonalEdgeStyle;rounded=0;orthogonalLoop=1;jettySize=auto;html=1;exitX=1;exitY=0.5;exitDx=0;exitDy=0;endArrow=classic;endFill=1;" edge="1" parent="QXWCF3GEC1Rd_kHdMB5l-98" source="cor3wmo5FigD4dXmAoRj-28">
          <mxGeometry relative="1" as="geometry">
            <mxPoint x="182" y="159.15789473684208" as="targetPoint" />
            <Array as="points">
              <mxPoint x="182" y="294.7368421052632" />
            </Array>
          </mxGeometry>
        </mxCell>
        <mxCell id="QXWCF3GEC1Rd_kHdMB5l-11" value="推送索引" style="edgeLabel;html=1;align=center;verticalAlign=middle;resizable=0;points=[];" vertex="1" connectable="0" parent="QXWCF3GEC1Rd_kHdMB5l-3">
          <mxGeometry x="-0.5412" relative="1" as="geometry">
            <mxPoint x="4" y="-10" as="offset" />
          </mxGeometry>
        </mxCell>
        <mxCell id="QXWCF3GEC1Rd_kHdMB5l-45" value="推送索引" style="edgeLabel;html=1;align=center;verticalAlign=middle;resizable=0;points=[];" vertex="1" connectable="0" parent="QXWCF3GEC1Rd_kHdMB5l-3">
          <mxGeometry x="0.1674" y="-1" relative="1" as="geometry">
            <mxPoint y="-1" as="offset" />
          </mxGeometry>
        </mxCell>
        <mxCell id="cor3wmo5FigD4dXmAoRj-28" value="pms应用" style="rounded=1;whiteSpace=wrap;html=1;shadow=0;glass=0;sketch=0;fontSize=13;fillColor=#FFE6CC;strokeColor=#36393d;" parent="QXWCF3GEC1Rd_kHdMB5l-98" vertex="1">
          <mxGeometry x="129.206106870229" y="269.4736842105263" width="102.80916030534351" height="50.526315789473685" as="geometry" />
        </mxCell>
        <mxCell id="QXWCF3GEC1Rd_kHdMB5l-1" value="pms应用" style="rounded=1;whiteSpace=wrap;html=1;shadow=0;glass=0;sketch=0;fontSize=13;fillColor=#FFE6CC;strokeColor=#36393d;" vertex="1" parent="QXWCF3GEC1Rd_kHdMB5l-98">
          <mxGeometry x="126.42748091603056" y="107.78947368421052" width="102.80916030534351" height="50.526315789473685" as="geometry" />
        </mxCell>
        <mxCell id="QXWCF3GEC1Rd_kHdMB5l-4" style="edgeStyle=orthogonalEdgeStyle;rounded=0;orthogonalLoop=1;jettySize=auto;html=1;exitX=0.601;exitY=-0.012;exitDx=0;exitDy=0;endArrow=classic;endFill=1;exitPerimeter=0;" edge="1" parent="QXWCF3GEC1Rd_kHdMB5l-98" source="cor3wmo5FigD4dXmAoRj-27">
          <mxGeometry relative="1" as="geometry">
            <mxPoint x="213" y="158" as="targetPoint" />
            <Array as="points">
              <mxPoint x="323" y="218" />
              <mxPoint x="213" y="218" />
            </Array>
          </mxGeometry>
        </mxCell>
        <mxCell id="QXWCF3GEC1Rd_kHdMB5l-9" value="&lt;span style=&quot;color: rgba(0 , 0 , 0 , 0) ; font-family: monospace ; font-size: 0px&quot;&gt;%3CmxGraphModel%3E%3Croot%3E%3CmxCell%20id%3D%220%22%2F%3E%3CmxCell%20id%3D%221%22%20parent%3D%220%22%2F%3E%3CmxCell%20id%3D%222%22%20value%3D%22%E8%BF%9C%E7%A8%8Bpms%E5%BA%94%E7%94%A8%22%20style%3D%22rounded%3D1%3BwhiteSpace%3Dwrap%3Bhtml%3D1%3Bshadow%3D0%3Bglass%3D0%3Bsketch%3D0%3BfontSize%3D13%3BfillColor%3D%23FFE6CC%3BstrokeColor%3D%2336393d%3B%22%20vertex%3D%221%22%20parent%3D%221%22%3E%3CmxGeometry%20x%3D%22-298%22%20y%3D%22304%22%20width%3D%22148%22%20height%3D%2260%22%20as%3D%22geometry%22%2F%3E%3C%2FmxCell%3E%3C%2Froot%3E%3C%2FmxGraphModel%3E&lt;/span&gt;" style="edgeLabel;html=1;align=center;verticalAlign=middle;resizable=0;points=[];" vertex="1" connectable="0" parent="QXWCF3GEC1Rd_kHdMB5l-4">
          <mxGeometry x="-0.0794" y="-2" relative="1" as="geometry">
            <mxPoint y="1" as="offset" />
          </mxGeometry>
        </mxCell>
        <mxCell id="QXWCF3GEC1Rd_kHdMB5l-10" value="推送索引" style="edgeLabel;html=1;align=center;verticalAlign=middle;resizable=0;points=[];" vertex="1" connectable="0" parent="QXWCF3GEC1Rd_kHdMB5l-4">
          <mxGeometry x="-0.2063" y="3" relative="1" as="geometry">
            <mxPoint x="-26" y="-13" as="offset" />
          </mxGeometry>
        </mxCell>
        <mxCell id="QXWCF3GEC1Rd_kHdMB5l-14" value="用户" style="text;html=1;strokeColor=none;fillColor=none;align=center;verticalAlign=middle;whiteSpace=wrap;rounded=0;" vertex="1" parent="QXWCF3GEC1Rd_kHdMB5l-98">
          <mxGeometry x="188.2519083969466" y="14.31578947368422" width="22.923664122137406" height="16" as="geometry" />
        </mxCell>
        <mxCell id="QXWCF3GEC1Rd_kHdMB5l-100" style="edgeStyle=orthogonalEdgeStyle;rounded=0;orthogonalLoop=1;jettySize=auto;html=1;endArrow=classic;endFill=1;" edge="1" parent="1" source="QXWCF3GEC1Rd_kHdMB5l-102">
          <mxGeometry relative="1" as="geometry">
            <mxPoint x="-358.3893129770992" y="787.1052631578948" as="targetPoint" />
          </mxGeometry>
        </mxCell>
        <mxCell id="QXWCF3GEC1Rd_kHdMB5l-101" value="查询" style="edgeLabel;html=1;align=center;verticalAlign=middle;resizable=0;points=[];" vertex="1" connectable="0" parent="QXWCF3GEC1Rd_kHdMB5l-100">
          <mxGeometry x="-0.2872" y="1" relative="1" as="geometry">
            <mxPoint x="14" y="6" as="offset" />
          </mxGeometry>
        </mxCell>
        <mxCell id="QXWCF3GEC1Rd_kHdMB5l-103" style="edgeStyle=orthogonalEdgeStyle;rounded=0;orthogonalLoop=1;jettySize=auto;html=1;endArrow=classic;endFill=1;" edge="1" parent="1" source="QXWCF3GEC1Rd_kHdMB5l-105">
          <mxGeometry relative="1" as="geometry">
            <mxPoint x="-386.17557251908397" y="840.1578947368421" as="targetPoint" />
            <Array as="points">
              <mxPoint x="-482" y="896" />
              <mxPoint x="-386" y="896" />
            </Array>
          </mxGeometry>
        </mxCell>
        <mxCell id="QXWCF3GEC1Rd_kHdMB5l-104" value="推送索引" style="edgeLabel;html=1;align=center;verticalAlign=middle;resizable=0;points=[];" vertex="1" connectable="0" parent="QXWCF3GEC1Rd_kHdMB5l-103">
          <mxGeometry x="-0.1289" y="-1" relative="1" as="geometry">
            <mxPoint x="20" y="-11" as="offset" />
          </mxGeometry>
        </mxCell>
        <mxCell id="QXWCF3GEC1Rd_kHdMB5l-134" style="edgeStyle=orthogonalEdgeStyle;rounded=0;orthogonalLoop=1;jettySize=auto;html=1;endArrow=classic;endFill=1;entryX=-0.003;entryY=0.887;entryDx=0;entryDy=0;entryPerimeter=0;" edge="1" parent="1" source="QXWCF3GEC1Rd_kHdMB5l-105" target="QXWCF3GEC1Rd_kHdMB5l-133">
          <mxGeometry relative="1" as="geometry">
            <mxPoint x="-210" y="1108" as="targetPoint" />
            <Array as="points">
              <mxPoint x="-488" y="1107" />
              <mxPoint x="-191" y="1107" />
            </Array>
          </mxGeometry>
        </mxCell>
        <mxCell id="QXWCF3GEC1Rd_kHdMB5l-105" value="山东项目1" style="rounded=1;whiteSpace=wrap;html=1;shadow=0;glass=0;sketch=0;fontSize=13;fillColor=#dae8fc;strokeColor=#6c8ebf;" vertex="1" parent="1">
          <mxGeometry x="-539" y="950.4736842105262" width="102.80916030534351" height="50.526315789473685" as="geometry" />
        </mxCell>
        <mxCell id="QXWCF3GEC1Rd_kHdMB5l-136" style="edgeStyle=orthogonalEdgeStyle;rounded=0;orthogonalLoop=1;jettySize=auto;html=1;entryX=0.001;entryY=0.364;entryDx=0;entryDy=0;endArrow=classic;endFill=1;entryPerimeter=0;" edge="1" parent="1" source="QXWCF3GEC1Rd_kHdMB5l-106" target="QXWCF3GEC1Rd_kHdMB5l-133">
          <mxGeometry relative="1" as="geometry">
            <Array as="points">
              <mxPoint x="-226" y="1082" />
              <mxPoint x="-191" y="1082" />
            </Array>
          </mxGeometry>
        </mxCell>
        <mxCell id="QXWCF3GEC1Rd_kHdMB5l-106" value="山东项目3" style="rounded=1;whiteSpace=wrap;html=1;shadow=0;glass=0;sketch=0;fontSize=13;fillColor=#dae8fc;strokeColor=#6c8ebf;" vertex="1" parent="1">
          <mxGeometry x="-277.8091603053435" y="950.4736842105262" width="102.80916030534351" height="50.526315789473685" as="geometry" />
        </mxCell>
        <mxCell id="QXWCF3GEC1Rd_kHdMB5l-107" style="edgeStyle=orthogonalEdgeStyle;rounded=0;orthogonalLoop=1;jettySize=auto;html=1;exitX=1;exitY=0.5;exitDx=0;exitDy=0;endArrow=classic;endFill=1;" edge="1" parent="1" source="QXWCF3GEC1Rd_kHdMB5l-110">
          <mxGeometry relative="1" as="geometry">
            <mxPoint x="-357" y="840.1578947368421" as="targetPoint" />
            <Array as="points">
              <mxPoint x="-357" y="975.7368421052631" />
            </Array>
          </mxGeometry>
        </mxCell>
        <mxCell id="QXWCF3GEC1Rd_kHdMB5l-108" value="推送索引" style="edgeLabel;html=1;align=center;verticalAlign=middle;resizable=0;points=[];" vertex="1" connectable="0" parent="QXWCF3GEC1Rd_kHdMB5l-107">
          <mxGeometry x="-0.5412" relative="1" as="geometry">
            <mxPoint x="4" y="-10" as="offset" />
          </mxGeometry>
        </mxCell>
        <mxCell id="QXWCF3GEC1Rd_kHdMB5l-109" value="推送索引" style="edgeLabel;html=1;align=center;verticalAlign=middle;resizable=0;points=[];" vertex="1" connectable="0" parent="QXWCF3GEC1Rd_kHdMB5l-107">
          <mxGeometry x="0.1674" y="-1" relative="1" as="geometry">
            <mxPoint y="-1" as="offset" />
          </mxGeometry>
        </mxCell>
        <mxCell id="QXWCF3GEC1Rd_kHdMB5l-135" style="edgeStyle=orthogonalEdgeStyle;rounded=0;orthogonalLoop=1;jettySize=auto;html=1;entryX=0.005;entryY=0.625;entryDx=0;entryDy=0;endArrow=classic;endFill=1;entryPerimeter=0;" edge="1" parent="1" source="QXWCF3GEC1Rd_kHdMB5l-110" target="QXWCF3GEC1Rd_kHdMB5l-133">
          <mxGeometry relative="1" as="geometry">
            <Array as="points">
              <mxPoint x="-358" y="1095" />
              <mxPoint x="-190" y="1095" />
            </Array>
          </mxGeometry>
        </mxCell>
        <mxCell id="QXWCF3GEC1Rd_kHdMB5l-110" value="山东项目2" style="rounded=1;whiteSpace=wrap;html=1;shadow=0;glass=0;sketch=0;fontSize=13;fillColor=#dae8fc;strokeColor=#6c8ebf;" vertex="1" parent="1">
          <mxGeometry x="-409.793893129771" y="950.4736842105262" width="102.80916030534351" height="50.526315789473685" as="geometry" />
        </mxCell>
        <mxCell id="QXWCF3GEC1Rd_kHdMB5l-111" value="山东项目" style="rounded=1;whiteSpace=wrap;html=1;shadow=0;glass=0;sketch=0;fontSize=13;fillColor=#dae8fc;strokeColor=#6c8ebf;" vertex="1" parent="1">
          <mxGeometry x="-412.57251908396944" y="788.7894736842105" width="102.80916030534351" height="50.526315789473685" as="geometry" />
        </mxCell>
        <mxCell id="QXWCF3GEC1Rd_kHdMB5l-112" style="edgeStyle=orthogonalEdgeStyle;rounded=0;orthogonalLoop=1;jettySize=auto;html=1;exitX=0.601;exitY=-0.012;exitDx=0;exitDy=0;endArrow=classic;endFill=1;exitPerimeter=0;" edge="1" parent="1" source="QXWCF3GEC1Rd_kHdMB5l-106">
          <mxGeometry relative="1" as="geometry">
            <mxPoint x="-326" y="839" as="targetPoint" />
            <Array as="points">
              <mxPoint x="-216" y="899" />
              <mxPoint x="-326" y="899" />
            </Array>
          </mxGeometry>
        </mxCell>
        <mxCell id="QXWCF3GEC1Rd_kHdMB5l-113" value="&lt;span style=&quot;color: rgba(0 , 0 , 0 , 0) ; font-family: monospace ; font-size: 0px&quot;&gt;%3CmxGraphModel%3E%3Croot%3E%3CmxCell%20id%3D%220%22%2F%3E%3CmxCell%20id%3D%221%22%20parent%3D%220%22%2F%3E%3CmxCell%20id%3D%222%22%20value%3D%22%E8%BF%9C%E7%A8%8Bpms%E5%BA%94%E7%94%A8%22%20style%3D%22rounded%3D1%3BwhiteSpace%3Dwrap%3Bhtml%3D1%3Bshadow%3D0%3Bglass%3D0%3Bsketch%3D0%3BfontSize%3D13%3BfillColor%3D%23FFE6CC%3BstrokeColor%3D%2336393d%3B%22%20vertex%3D%221%22%20parent%3D%221%22%3E%3CmxGeometry%20x%3D%22-298%22%20y%3D%22304%22%20width%3D%22148%22%20height%3D%2260%22%20as%3D%22geometry%22%2F%3E%3C%2FmxCell%3E%3C%2Froot%3E%3C%2FmxGraphModel%3E&lt;/span&gt;" style="edgeLabel;html=1;align=center;verticalAlign=middle;resizable=0;points=[];" vertex="1" connectable="0" parent="QXWCF3GEC1Rd_kHdMB5l-112">
          <mxGeometry x="-0.0794" y="-2" relative="1" as="geometry">
            <mxPoint y="1" as="offset" />
          </mxGeometry>
        </mxCell>
        <mxCell id="QXWCF3GEC1Rd_kHdMB5l-114" value="推送索引" style="edgeLabel;html=1;align=center;verticalAlign=middle;resizable=0;points=[];" vertex="1" connectable="0" parent="QXWCF3GEC1Rd_kHdMB5l-112">
          <mxGeometry x="-0.2063" y="3" relative="1" as="geometry">
            <mxPoint x="-26" y="-13" as="offset" />
          </mxGeometry>
        </mxCell>
        <mxCell id="QXWCF3GEC1Rd_kHdMB5l-133" value="集团应用" style="rounded=1;whiteSpace=wrap;html=1;shadow=0;glass=0;sketch=0;fontSize=13;fillColor=#dae8fc;strokeColor=#6c8ebf;" vertex="1" parent="1">
          <mxGeometry x="-190.90251908396942" y="1062.9994736842104" width="102.80916030534351" height="50.526315789473685" as="geometry" />
        </mxCell>
        <mxCell id="QXWCF3GEC1Rd_kHdMB5l-138" style="edgeStyle=elbowEdgeStyle;rounded=0;orthogonalLoop=1;jettySize=auto;html=1;endArrow=classic;endFill=1;entryX=0.987;entryY=0.083;entryDx=0;entryDy=0;entryPerimeter=0;" edge="1" parent="1" source="QXWCF3GEC1Rd_kHdMB5l-122" target="QXWCF3GEC1Rd_kHdMB5l-133">
          <mxGeometry relative="1" as="geometry">
            <mxPoint x="-65.5" y="1042" as="targetPoint" />
            <Array as="points">
              <mxPoint x="-66" y="1078" />
              <mxPoint x="-62" y="1036" />
            </Array>
          </mxGeometry>
        </mxCell>
        <mxCell id="QXWCF3GEC1Rd_kHdMB5l-139" style="edgeStyle=elbowEdgeStyle;rounded=0;orthogonalLoop=1;jettySize=auto;html=1;entryX=0.997;entryY=0.415;entryDx=0;entryDy=0;entryPerimeter=0;endArrow=classic;endFill=1;" edge="1" parent="1" source="QXWCF3GEC1Rd_kHdMB5l-127" target="QXWCF3GEC1Rd_kHdMB5l-133">
          <mxGeometry relative="1" as="geometry">
            <Array as="points">
              <mxPoint x="58" y="1025" />
            </Array>
          </mxGeometry>
        </mxCell>
        <mxCell id="QXWCF3GEC1Rd_kHdMB5l-140" style="edgeStyle=elbowEdgeStyle;rounded=0;orthogonalLoop=1;jettySize=auto;html=1;entryX=1;entryY=0.75;entryDx=0;entryDy=0;endArrow=classic;endFill=1;" edge="1" parent="1" source="QXWCF3GEC1Rd_kHdMB5l-123" target="QXWCF3GEC1Rd_kHdMB5l-133">
          <mxGeometry relative="1" as="geometry">
            <Array as="points">
              <mxPoint x="198" y="1041" />
            </Array>
          </mxGeometry>
        </mxCell>
        <mxCell id="QXWCF3GEC1Rd_kHdMB5l-144" value="" style="group" vertex="1" connectable="0" parent="1">
          <mxGeometry x="-368.80916030534354" y="681" width="79.80916030534354" height="50.5263157894737" as="geometry" />
        </mxCell>
        <mxCell id="QXWCF3GEC1Rd_kHdMB5l-102" value="" style="shape=umlActor;verticalLabelPosition=bottom;verticalAlign=top;html=1;outlineConnect=0;fillColor=#d0cee2;strokeColor=#56517e;fontSize=13;" vertex="1" parent="QXWCF3GEC1Rd_kHdMB5l-144">
          <mxGeometry width="20.83969465648855" height="50.526315789473685" as="geometry" />
        </mxCell>
        <mxCell id="QXWCF3GEC1Rd_kHdMB5l-115" value="山东用户" style="text;html=1;strokeColor=none;fillColor=none;align=center;verticalAlign=middle;whiteSpace=wrap;rounded=0;" vertex="1" parent="QXWCF3GEC1Rd_kHdMB5l-144">
          <mxGeometry x="18.05916030534354" y="14.319999999999993" width="61.75" height="16" as="geometry" />
        </mxCell>
        <mxCell id="QXWCF3GEC1Rd_kHdMB5l-152" style="edgeStyle=elbowEdgeStyle;rounded=0;orthogonalLoop=1;jettySize=auto;html=1;entryX=0.344;entryY=-0.064;entryDx=0;entryDy=0;entryPerimeter=0;endArrow=classic;endFill=1;" edge="1" parent="1" source="QXWCF3GEC1Rd_kHdMB5l-150">
          <mxGeometry relative="1" as="geometry">
            <mxPoint x="-138.53616793893116" y="1059.765789473684" as="targetPoint" />
          </mxGeometry>
        </mxCell>
        <mxCell id="QXWCF3GEC1Rd_kHdMB5l-150" value="" style="shape=umlActor;verticalLabelPosition=bottom;verticalAlign=top;html=1;outlineConnect=0;fillColor=#d0cee2;strokeColor=#56517e;fontSize=13;" vertex="1" parent="1">
          <mxGeometry x="-148.9991603053436" y="696.3199999999999" width="20.83969465648855" height="50.526315789473685" as="geometry" />
        </mxCell>
        <mxCell id="QXWCF3GEC1Rd_kHdMB5l-117" style="edgeStyle=orthogonalEdgeStyle;rounded=0;orthogonalLoop=1;jettySize=auto;html=1;endArrow=classic;endFill=1;" edge="1" parent="1" source="QXWCF3GEC1Rd_kHdMB5l-119">
          <mxGeometry relative="1" as="geometry">
            <mxPoint x="57.61068702290072" y="788.1052631578948" as="targetPoint" />
          </mxGeometry>
        </mxCell>
        <mxCell id="QXWCF3GEC1Rd_kHdMB5l-118" value="查询" style="edgeLabel;html=1;align=center;verticalAlign=middle;resizable=0;points=[];" vertex="1" connectable="0" parent="QXWCF3GEC1Rd_kHdMB5l-117">
          <mxGeometry x="-0.2872" y="1" relative="1" as="geometry">
            <mxPoint x="14" y="6" as="offset" />
          </mxGeometry>
        </mxCell>
        <mxCell id="QXWCF3GEC1Rd_kHdMB5l-119" value="" style="shape=umlActor;verticalLabelPosition=bottom;verticalAlign=top;html=1;outlineConnect=0;fillColor=#d0cee2;strokeColor=#56517e;fontSize=13;" vertex="1" parent="1">
          <mxGeometry x="47.19083969465646" y="682" width="20.83969465648855" height="50.526315789473685" as="geometry" />
        </mxCell>
        <mxCell id="QXWCF3GEC1Rd_kHdMB5l-120" style="edgeStyle=orthogonalEdgeStyle;rounded=0;orthogonalLoop=1;jettySize=auto;html=1;endArrow=classic;endFill=1;" edge="1" parent="1" source="QXWCF3GEC1Rd_kHdMB5l-122">
          <mxGeometry relative="1" as="geometry">
            <mxPoint x="29.82442748091603" y="841.1578947368421" as="targetPoint" />
            <Array as="points">
              <mxPoint x="-66" y="897" />
              <mxPoint x="30" y="897" />
            </Array>
          </mxGeometry>
        </mxCell>
        <mxCell id="QXWCF3GEC1Rd_kHdMB5l-121" value="推送索引" style="edgeLabel;html=1;align=center;verticalAlign=middle;resizable=0;points=[];" vertex="1" connectable="0" parent="QXWCF3GEC1Rd_kHdMB5l-120">
          <mxGeometry x="-0.1289" y="-1" relative="1" as="geometry">
            <mxPoint x="20" y="-11" as="offset" />
          </mxGeometry>
        </mxCell>
        <mxCell id="QXWCF3GEC1Rd_kHdMB5l-122" value="湖南项目1" style="rounded=1;whiteSpace=wrap;html=1;shadow=0;glass=0;sketch=0;fontSize=13;fillColor=#dae8fc;strokeColor=#6c8ebf;" vertex="1" parent="1">
          <mxGeometry x="-123" y="951.4736842105262" width="102.80916030534351" height="50.526315789473685" as="geometry" />
        </mxCell>
        <mxCell id="QXWCF3GEC1Rd_kHdMB5l-123" value="湖南项目3" style="rounded=1;whiteSpace=wrap;html=1;shadow=0;glass=0;sketch=0;fontSize=13;fillColor=#dae8fc;strokeColor=#6c8ebf;" vertex="1" parent="1">
          <mxGeometry x="138.19083969465646" y="951.4736842105262" width="102.80916030534351" height="50.526315789473685" as="geometry" />
        </mxCell>
        <mxCell id="QXWCF3GEC1Rd_kHdMB5l-124" style="edgeStyle=orthogonalEdgeStyle;rounded=0;orthogonalLoop=1;jettySize=auto;html=1;exitX=1;exitY=0.5;exitDx=0;exitDy=0;endArrow=classic;endFill=1;" edge="1" parent="1" source="QXWCF3GEC1Rd_kHdMB5l-127">
          <mxGeometry relative="1" as="geometry">
            <mxPoint x="59" y="841.1578947368421" as="targetPoint" />
            <Array as="points">
              <mxPoint x="59" y="976.7368421052631" />
            </Array>
          </mxGeometry>
        </mxCell>
        <mxCell id="QXWCF3GEC1Rd_kHdMB5l-125" value="推送索引" style="edgeLabel;html=1;align=center;verticalAlign=middle;resizable=0;points=[];" vertex="1" connectable="0" parent="QXWCF3GEC1Rd_kHdMB5l-124">
          <mxGeometry x="-0.5412" relative="1" as="geometry">
            <mxPoint x="4" y="-10" as="offset" />
          </mxGeometry>
        </mxCell>
        <mxCell id="QXWCF3GEC1Rd_kHdMB5l-126" value="推送索引" style="edgeLabel;html=1;align=center;verticalAlign=middle;resizable=0;points=[];" vertex="1" connectable="0" parent="QXWCF3GEC1Rd_kHdMB5l-124">
          <mxGeometry x="0.1674" y="-1" relative="1" as="geometry">
            <mxPoint y="-1" as="offset" />
          </mxGeometry>
        </mxCell>
        <mxCell id="QXWCF3GEC1Rd_kHdMB5l-127" value="湖南项目2" style="rounded=1;whiteSpace=wrap;html=1;shadow=0;glass=0;sketch=0;fontSize=13;fillColor=#dae8fc;strokeColor=#6c8ebf;" vertex="1" parent="1">
          <mxGeometry x="6.20610687022895" y="951.4736842105262" width="102.80916030534351" height="50.526315789473685" as="geometry" />
        </mxCell>
        <mxCell id="QXWCF3GEC1Rd_kHdMB5l-128" value="湖南项目" style="rounded=1;whiteSpace=wrap;html=1;shadow=0;glass=0;sketch=0;fontSize=13;fillColor=#dae8fc;strokeColor=#6c8ebf;" vertex="1" parent="1">
          <mxGeometry x="3.4274809160306177" y="789.7894736842105" width="102.80916030534351" height="50.526315789473685" as="geometry" />
        </mxCell>
        <mxCell id="QXWCF3GEC1Rd_kHdMB5l-129" style="edgeStyle=orthogonalEdgeStyle;rounded=0;orthogonalLoop=1;jettySize=auto;html=1;exitX=0.601;exitY=-0.012;exitDx=0;exitDy=0;endArrow=classic;endFill=1;exitPerimeter=0;" edge="1" parent="1" source="QXWCF3GEC1Rd_kHdMB5l-123">
          <mxGeometry relative="1" as="geometry">
            <mxPoint x="90" y="840" as="targetPoint" />
            <Array as="points">
              <mxPoint x="200" y="900" />
              <mxPoint x="90" y="900" />
            </Array>
          </mxGeometry>
        </mxCell>
        <mxCell id="QXWCF3GEC1Rd_kHdMB5l-130" value="&lt;span style=&quot;color: rgba(0 , 0 , 0 , 0) ; font-family: monospace ; font-size: 0px&quot;&gt;%3CmxGraphModel%3E%3Croot%3E%3CmxCell%20id%3D%220%22%2F%3E%3CmxCell%20id%3D%221%22%20parent%3D%220%22%2F%3E%3CmxCell%20id%3D%222%22%20value%3D%22%E8%BF%9C%E7%A8%8Bpms%E5%BA%94%E7%94%A8%22%20style%3D%22rounded%3D1%3BwhiteSpace%3Dwrap%3Bhtml%3D1%3Bshadow%3D0%3Bglass%3D0%3Bsketch%3D0%3BfontSize%3D13%3BfillColor%3D%23FFE6CC%3BstrokeColor%3D%2336393d%3B%22%20vertex%3D%221%22%20parent%3D%221%22%3E%3CmxGeometry%20x%3D%22-298%22%20y%3D%22304%22%20width%3D%22148%22%20height%3D%2260%22%20as%3D%22geometry%22%2F%3E%3C%2FmxCell%3E%3C%2Froot%3E%3C%2FmxGraphModel%3E&lt;/span&gt;" style="edgeLabel;html=1;align=center;verticalAlign=middle;resizable=0;points=[];" vertex="1" connectable="0" parent="QXWCF3GEC1Rd_kHdMB5l-129">
          <mxGeometry x="-0.0794" y="-2" relative="1" as="geometry">
            <mxPoint y="1" as="offset" />
          </mxGeometry>
        </mxCell>
        <mxCell id="QXWCF3GEC1Rd_kHdMB5l-131" value="推送索引" style="edgeLabel;html=1;align=center;verticalAlign=middle;resizable=0;points=[];" vertex="1" connectable="0" parent="QXWCF3GEC1Rd_kHdMB5l-129">
          <mxGeometry x="-0.2063" y="3" relative="1" as="geometry">
            <mxPoint x="-26" y="-13" as="offset" />
          </mxGeometry>
        </mxCell>
        <mxCell id="QXWCF3GEC1Rd_kHdMB5l-132" value="湖南用户" style="text;html=1;strokeColor=none;fillColor=none;align=center;verticalAlign=middle;whiteSpace=wrap;rounded=0;" vertex="1" parent="1">
          <mxGeometry x="65.25" y="696.3199999999999" width="58.75" height="16" as="geometry" />
        </mxCell>
        <mxCell id="QXWCF3GEC1Rd_kHdMB5l-151" value="集团用户" style="text;html=1;strokeColor=none;fillColor=none;align=center;verticalAlign=middle;whiteSpace=wrap;rounded=0;" vertex="1" parent="1">
          <mxGeometry x="-135" y="712.3199999999999" width="61.75" height="16" as="geometry" />
        </mxCell>
      </root>
    </mxGraphModel>
  </diagram>
</mxfile>
